HIERARCHY
ROOT Hips
{
	OFFSET -21.947001 39.810204 44.525997
	CHANNELS 6 Xposition Yposition Zposition Zrotation Xrotation Yrotation
	JOINT Chest
	{
		OFFSET -0.201599 0.334099 6.453201
		CHANNELS 6 Xposition Yposition Zposition Zrotation Xrotation Yrotation
		JOINT Chest2
		{
			OFFSET 0.000000 0.000000 3.568001
			CHANNELS 6 Xposition Yposition Zposition Zrotation Xrotation Yrotation
			JOINT Neck
			{
				OFFSET 0.000000 0.000000 8.296402
				CHANNELS 6 Xposition Yposition Zposition Zrotation Xrotation Yrotation
				JOINT Head
				{
					OFFSET 0.000000 0.000000 2.173901
					CHANNELS 6 Xposition Yposition Zposition Zrotation Xrotation Yrotation
					End Site
					{
						OFFSET 0.000000 0.000000 7.891998
					}
				}
			}
			JOINT LeftCollar
			{
				OFFSET 1.927601 0.221401 6.049000
				CHANNELS 6 Xposition Yposition Zposition Zrotation Xrotation Yrotation
				JOINT LeftShoulder
				{
					OFFSET 4.959700 0.000000 0.000000
					CHANNELS 6 Xposition Yposition Zposition Zrotation Xrotation Yrotation
					JOINT LeftElbow
					{
						OFFSET 0.000000 0.000000 -8.654202
						CHANNELS 6 Xposition Yposition Zposition Zrotation Xrotation Yrotation
						JOINT LeftWrist
						{
							OFFSET 0.000000 0.000000 -13.864101
							CHANNELS 6 Xposition Yposition Zposition Zrotation Xrotation Yrotation
							End Site
							{
								OFFSET 0.000000 0.000000 -2.173901
							}
						}
					}
				}
			}
			JOINT RightCollar
			{
				OFFSET -3.155701 -0.764999 6.687801
				CHANNELS 6 Xposition Yposition Zposition Zrotation Xrotation Yrotation
				JOINT RightShoulder
				{
					OFFSET -3.592899 0.000000 0.000000
					CHANNELS 6 Xposition Yposition Zposition Zrotation Xrotation Yrotation
					JOINT RightElbow
					{
						OFFSET 0.000000 0.000000 -10.352398
						CHANNELS 6 Xposition Yposition Zposition Zrotation Xrotation Yrotation
						JOINT RightWrist
						{
							OFFSET 0.000000 0.000000 -12.750301
							CHANNELS 6 Xposition Yposition Zposition Zrotation Xrotation Yrotation
							End Site
							{
								OFFSET 0.000000 0.000000 -2.173901
							}
						}
					}
				}
			}
		}
	}
	JOINT LeftHip
	{
		OFFSET 2.460600 -0.518101 -2.735500
		CHANNELS 6 Xposition Yposition Zposition Zrotation Xrotation Yrotation
		JOINT LeftKnee
		{
			OFFSET 0.000000 -0.000004 -17.005899
			CHANNELS 6 Xposition Yposition Zposition Zrotation Xrotation Yrotation
			JOINT LeftAnkle
			{
				OFFSET 0.000000 0.000000 -19.194401
				CHANNELS 6 Xposition Yposition Zposition Zrotation Xrotation Yrotation
				End Site
				{
					OFFSET 0.000000 -8.134600 0.000000
				}
			}
		}
	}
	JOINT RightHip
	{
		OFFSET -3.115499 -0.679600 -2.320301
		CHANNELS 6 Xposition Yposition Zposition Zrotation Xrotation Yrotation
		JOINT RightKnee
		{
			OFFSET 0.000000 -0.000004 -17.680401
			CHANNELS 6 Xposition Yposition Zposition Zrotation Xrotation Yrotation
			JOINT RightAnkle
			{
				OFFSET 0.000000 0.000000 -16.993797
				CHANNELS 6 Xposition Yposition Zposition Zrotation Xrotation Yrotation
				End Site
				{
					OFFSET 0.000000 -8.842300 0.000000
				}
			}
		}
	}
}
MOTION
Frames: 7
Frame Time: 0.041667
-26.873695 13.514503 44.579189 2449.545385 -27.178492 -4.494389 -0.201599 0.334098 6.453208 22.189288 16.780125 2.264492 0.000004 0.000006 3.568001 -5.653766 4.388222 -0.066080 0.000008 0.000000 8.296398 231.470904 -181.981853 165.773868 -0.000002 -0.000001 2.173898 3.310405 3.921952 3.755378 1.927604 0.221403 6.048998 -18.794765 0.159579 -2.705968 4.959701 -0.000002 -0.000002 129.670936 193.684467 135.324858 0.000000 -0.000005 -8.654200 -73.280676 -17.104629 -1.992131 0.000004 -0.000001 -13.864094 4082.934090 -188.491761 110.474799 -3.155707 -0.764997 6.687803 46.515600 4.314280 0.780137 -3.592901 -0.000002 -0.000000 -132.927352 186.458236 222.160318 -0.000008 -0.000004 -10.352401 -299.000601 -17.018270 -351.405665 -0.000004 -0.000000 -12.750297 198.332506 161.928650 -128.590414 2.460605 -0.518100 -2.735494 -437.935446 47.757212 36.006479 -0.000006 0.000001 -17.005901 150.925584 184.248451 -73.137420 0.000003 -0.000001 -19.194399 631.080465 163.924417 250.592810 -3.115493 -0.679597 -2.320298 -360.890066 25.658632 -0.000602 -0.000002 0.000003 -17.680397 -486.910198 154.857887 -197.470809 0.000004 0.000002 -16.993795 1052.853990 21.731809 -357.782220
-26.898800 13.508900 44.573692 2449.488120 -26.965225 -4.485588 -0.201597 0.334101 6.453211 22.151832 16.359922 2.401321 0.000001 0.000004 3.568001 -5.630418 4.448079 -0.055626 0.000003 0.000002 8.296400 231.560680 -181.894208 165.658165 -0.000001 -0.000003 2.173900 2.878735 3.963503 4.379304 1.927601 0.221404 6.049001 -18.935475 0.216328 -2.644330 4.959702 -0.000003 0.000008 129.705183 193.659933 135.296881 -0.000004 0.000006 -8.654201 -73.457762 -17.053838 -1.980862 0.000009 -0.000005 -13.864101 4083.038564 -188.927417 109.742931 -3.155709 -0.764998 6.687803 46.633991 4.487579 0.877153 -3.592901 -0.000007 -0.000001 -133.037701 186.672308 222.096469 0.000004 -0.000002 -10.352396 -298.883013 -16.999333 -351.397605 -0.000004 -0.000005 -12.750296 198.035488 161.909552 -128.621710 2.460604 -0.518094 -2.735502 -437.969843 47.656306 35.838829 0.000001 -0.000003 -17.005901 151.056122 184.390519 -73.005857 0.000002 0.000000 -19.194405 631.141882 163.946752 250.539453 -3.115497 -0.679590 -2.320297 -361.037625 25.440530 0.042043 -0.000009 0.000000 -17.680401 -487.187886 154.777114 -197.372810 0.000006 -0.000001 -16.993795 1053.164572 21.807035 -357.290392
-26.923004 13.507803 44.565891 2449.475881 -26.759414 -4.451053 -0.201596 0.334098 6.453205 22.075494 15.966655 2.532893 -0.000002 0.000003 3.568003 -5.616770 4.492825 -0.047960 -0.000003 -0.000001 8.296397 231.663050 -181.787971 165.556559 0.000001 -0.000001 2.173901 2.778074 3.927464 4.413857 1.927601 0.221404 6.048994 -19.062896 0.253566 -2.562991 4.959703 -0.000002 0.000009 129.717354 193.617189 135.257307 -0.000000 0.000003 -8.654200 -73.584380 -17.000544 -1.958796 -0.000004 -0.000001 -13.864103 4083.032444 -188.919412 109.751359 -3.155709 -0.764997 6.687799 46.739206 4.641969 0.973568 -3.592901 -0.000006 0.000002 -133.115715 186.838978 222.027074 -0.000003 -0.000005 -10.352392 -298.894214 -16.984140 -351.398179 -0.000008 0.000003 -12.750294 197.874392 161.864173 -128.670027 2.460604 -0.518097 -2.735512 -438.217834 47.547764 35.778853 -0.000000 -0.000006 -17.005899 151.378466 184.635682 -72.831475 -0.000006 -0.000002 -19.194397 631.277884 163.990602 250.514318 -3.115494 -0.679599 -2.320302 -361.252885 25.210659 0.070836 -0.000008 0.000001 -17.680403 -487.326238 154.664443 -197.368958 0.000004 0.000002 -16.993793 1053.376581 21.775282 -356.813372
-26.945702 13.510609 44.556698 2449.508010 -26.586265 -4.404720 -0.201600 0.334098 6.453200 21.916404 15.641219 2.694678 -0.000001 0.000005 3.568006 -5.586019 4.516055 -0.039571 0.000000 0.000001 8.296394 231.778645 -181.625303 165.438301 -0.000002 -0.000001 2.173896 2.719382 3.879497 4.371190 1.927599 0.221402 6.048995 -19.141822 0.269666 -2.534151 4.959702 -0.000005 0.000005 129.714240 193.598010 135.249207 0.000001 0.000008 -8.654202 -73.680659 -16.946543 -1.929550 0.000000 -0.000001 -13.864100 4083.022827 -188.941542 109.736982 -3.155709 -0.764996 6.687799 46.808243 4.732788 0.994678 -3.592897 -0.000003 0.000006 -133.132053 186.910599 221.995450 0.000007 -0.000007 -10.352405 -298.930114 -16.949628 -351.406184 -0.000005 -0.000002 -12.750294 197.741271 161.821402 -128.739189 2.460602 -0.518099 -2.735504 -438.656878 47.445875 35.830616 0.000001 -0.000002 -17.005894 151.854530 184.928027 -72.607008 -0.000002 -0.000005 -19.194405 631.420280 164.076689 250.492352 -3.115499 -0.679593 -2.320296 -361.535245 25.003699 0.088841 -0.000007 -0.000002 -17.680401 -487.381153 154.528276 -197.336664 0.000001 -0.000000 -16.993792 1053.559084 21.753685 -356.490003
-26.967602 13.516399 44.548992 2449.540139 -26.481840 -4.323603 -0.201600 0.334097 6.453199 21.747695 15.402995 2.819739 -0.000004 0.000001 3.567994 -5.547042 4.525335 -0.030915 0.000003 0.000001 8.296399 231.894539 -181.418471 165.308760 -0.000001 0.000001 2.173908 2.715370 3.838653 4.288139 1.927600 0.221403 6.049003 -19.209209 0.263101 -2.508882 4.959702 -0.000003 0.000007 129.704172 193.532864 135.217269 -0.000002 0.000000 -8.654196 -73.789594 -16.927061 -1.930449 0.000004 -0.000003 -13.864098 4083.104571 -188.970434 109.726928 -3.155703 -0.764998 6.687804 46.867010 4.802409 0.993905 -3.592901 -0.000008 -0.000001 -133.149784 186.961006 221.990970 -0.000004 -0.000003 -10.352407 -298.956834 -16.909144 -351.401212 -0.000004 -0.000002 -12.750301 197.711614 161.746338 -128.821357 2.460603 -0.518093 -2.735503 -439.286157 47.387982 36.055285 -0.000003 -0.000010 -17.005901 152.484506 185.280547 -72.358478 -0.000001 0.000006 -19.194397 631.584970 164.191027 250.476369 -3.115497 -0.679591 -2.320297 -361.555681 24.868128 -0.031377 -0.000007 0.000000 -17.680401 -487.806810 154.378149 -197.267133 -0.000001 -0.000002 -16.993795 1053.864967 21.787308 -356.331351
-26.989502 13.525702 44.544598 2449.569646 -26.454349 -4.200971 -0.201598 0.334102 6.453202 21.653190 15.266074 2.856785 -0.000003 0.000008 3.568002 -5.537180 4.527761 -0.026747 0.000001 0.000000 8.296396 231.983987 -181.211257 165.210569 -0.000002 -0.000001 2.173895 3.051360 3.730093 3.653156 1.927600 0.221404 6.049006 -19.236130 0.260060 -2.505780 4.959698 -0.000002 0.000006 129.635693 193.491555 135.185672 0.000003 -0.000003 -8.654202 -73.768406 -16.885257 -1.917042 -0.000002 0.000002 -13.864096 4083.140853 -188.926311 109.723772 -3.155704 -0.765002 6.687801 46.930431 4.883753 1.029509 -3.592899 -0.000004 0.000003 -133.254737 187.064538 221.995874 -0.000001 0.000003 -10.352412 -298.954156 -16.864801 -351.382743 -0.000004 -0.000002 -12.750293 197.793153 161.676670 -128.907253 2.460603 -0.518093 -2.735498 -440.144685 47.380510 36.492482 -0.000002 -0.000002 -17.005901 153.332679 185.897464 -72.123027 -0.000005 0.000006 -19.194399 631.973744 164.329256 250.603302 -3.115494 -0.679592 -2.320299 -361.718813 24.811012 -0.125057 -0.000010 0.000005 -17.680397 -488.101383 154.234018 -197.191632 -0.000001 0.000004 -16.993795 1054.207460 21.846203 -356.390528
-27.011200 13.536509 44.544094 2449.594562 -26.472722 -4.053994 -0.201601 0.334098 6.453209 21.611246 15.184989 2.850384 0.000000 0.000004 3.568009 -5.533781 4.532251 -0.022573 0.000003 0.000001 8.296402 232.042181 -181.009247 165.119304 -0.000002 -0.000001 2.173909 3.025671 3.689323 3.656753 1.927603 0.221400 6.049001 -19.255046 0.282530 -2.518164 4.959704 0.000000 0.000005 129.527284 193.479916 135.142997 -0.000000 -0.000000 -8.654198 -73.506059 -16.822698 -1.842639 0.000005 -0.000001 -13.864098 4083.044684 -188.886190 109.726347 -3.155706 -0.765002 6.687800 47.012295 4.989704 1.040049 -3.592901 -0.000011 0.000002 -133.448810 187.160434 222.040311 0.000003 -0.000002 -10.352402 -298.764277 -16.807277 -351.252150 -0.000005 -0.000000 -12.750299 197.752719 161.619925 -128.963179 2.460600 -0.518096 -2.735497 -441.004032 47.448761 36.963867 -0.000004 0.000002 -17.005901 154.175483 186.579840 -71.887543 -0.000002 0.000002 -19.194401 632.396342 164.482211 250.851511 -3.115499 -0.679596 -2.320299 -361.833916 24.808944 -0.255617 -0.000004 -0.000001 -17.680397 -488.538132 154.086472 -197.075915 0.000003 0.000005 -16.993797 1054.662077 21.937915 -356.641114
